<svg width="20" height="20" viewBox="0 0 20 20" fill="none" xmlns="http://www.w3.org/2000/svg">
<path fill-rule="evenodd" clip-rule="evenodd" d="M4.16699 15V7.5H9.16699V15H4.16699ZM7.50033 9.16667V13.3333H5.83366V9.16667H7.50033Z" fill="currentColor"/>
<path fill-rule="evenodd" clip-rule="evenodd" d="M10.8337 15V7.5H15.8337V15H10.8337ZM14.167 9.16667V13.3333H12.5003V9.16667H14.167Z" fill="currentColor"/>
<path fill-rule="evenodd" clip-rule="evenodd" d="M15.8337 15H4.16699C3.70675 15 3.33366 15.3731 3.33366 15.8334C3.33366 16.2936 3.70675 16.6667 4.16699 16.6667H15.8337C16.2939 16.6667 16.667 16.2936 16.667 15.8334C16.667 15.3731 16.2939 15 15.8337 15ZM4.16699 13.3334C2.78628 13.3334 1.66699 14.4527 1.66699 15.8334C1.66699 17.2141 2.78628 18.3334 4.16699 18.3334H15.8337C17.2144 18.3334 18.3337 17.2141 18.3337 15.8334C18.3337 14.4527 17.2144 13.3334 15.8337 13.3334H4.16699Z" fill="currentColor"/>
<path fill-rule="evenodd" clip-rule="evenodd" d="M16.667 6.66666V6.02673C16.667 5.65873 16.4256 5.33429 16.0731 5.22854L10.2398 3.47855C10.0836 3.43169 9.91707 3.43169 9.76087 3.47854L3.92754 5.22854C3.57505 5.33429 3.33366 5.65873 3.33366 6.02673V6.66666C3.33366 7.12689 3.70675 7.49999 4.16699 7.49999H15.8337C16.2939 7.49999 16.667 7.12689 16.667 6.66666ZM3.44862 3.63217C2.39116 3.94941 1.66699 4.92271 1.66699 6.02673V6.66666C1.66699 8.04737 2.78628 9.16666 4.16699 9.16666H15.8337C17.2144 9.16666 18.3337 8.04737 18.3337 6.66666V6.02673C18.3337 4.92271 17.6095 3.94941 16.552 3.63217L10.7187 1.88217C10.2501 1.74159 9.75055 1.74159 9.28196 1.88217L3.44862 3.63217Z" fill="currentColor"/>
</svg>
