<svg width="10" height="10" viewBox="0 0 10 10" fill="none" xmlns="http://www.w3.org/2000/svg">
    <path fill-rule="evenodd" clip-rule="evenodd" d="M1.96968 1.96967C2.26257 1.67678 2.73744 1.67678 3.03034 1.96967L8.35292 7.29225C8.64581 7.58515 8.64581 8.06002 8.35292 8.35291C8.06002 8.64581 7.58515 8.64581 7.29226 8.35291L1.96968 3.03033C1.67678 2.73744 1.67678 2.26256 1.96968 1.96967Z" fill="currentColor"/>
    <path fill-rule="evenodd" clip-rule="evenodd" d="M1.96967 8.35291C1.67678 8.06002 1.67678 7.58514 1.96967 7.29225L7.29225 1.96967C7.58514 1.67678 8.06002 1.67678 8.35291 1.96967C8.6458 2.26256 8.6458 2.73744 8.35291 3.03033L3.03033 8.35291C2.73744 8.6458 2.26256 8.6458 1.96967 8.35291Z" fill="currentColor"/>
</svg>