<svg width="24" height="24" viewBox="0 0 24 24" fill="none" xmlns="http://www.w3.org/2000/svg">
    <path fill-rule="evenodd" clip-rule="evenodd" d="M14.5684 4.5804H9.92198C10.1346 4.23247 10.518 4 10.9552 4H13.5352C13.9724 4 14.3558 4.23247 14.5684 4.5804ZM18.44 4.5804H16.6834C16.3907 3.10937 15.092 2 13.5352 2H10.9552C9.39839 2 8.09974 3.10937 7.80697 4.5804H6.06C3.82199 4.5804 2 6.38385 2 8.6304V12.0804C2 12.4355 2.18834 12.764 2.49482 12.9434C4.88803 14.3443 7.93276 15.2213 11.2452 15.3684V16.927C11.2452 17.4793 11.6929 17.927 12.2452 17.927C12.7975 17.927 13.2452 17.4793 13.2452 16.927V15.3679C16.5548 15.2195 19.6041 14.3431 21.9952 12.9434C22.3017 12.764 22.49 12.4355 22.49 12.0804V8.6404C22.49 6.40239 20.6865 4.5804 18.44 4.5804ZM4 8.6304C4 7.49695 4.91801 6.5804 6.06 6.5804H18.44C19.5735 6.5804 20.49 7.49841 20.49 8.6404V11.4927C18.27 12.6662 15.4064 13.3854 12.2728 13.3904C12.2637 13.3901 12.2544 13.39 12.2452 13.39L12.2358 13.39L12.2171 13.3904C9.08018 13.3869 6.22152 12.6676 4 11.4928V8.6304ZM4.02167 15.6581C3.98019 15.1074 3.50011 14.6945 2.94938 14.736C2.39866 14.7775 1.98584 15.2576 2.02733 15.8083L2.21633 18.3173L2.21635 18.3177C2.3838 20.5298 4.22707 22.2402 6.4455 22.2402H18.0445C20.2629 22.2402 22.1062 20.5298 22.2736 18.3177L22.2737 18.3173L22.4627 15.8083C22.5042 15.2576 22.0913 14.7775 21.5406 14.736C20.9899 14.6945 20.5098 15.1074 20.4683 15.6581L20.2794 18.1667L20.2793 18.1671C20.1906 19.3368 19.2159 20.2402 18.0445 20.2402H6.4455C5.27405 20.2402 4.29941 19.3368 4.21067 18.1671L4.21065 18.1667L4.02167 15.6581Z" fill="currentColor"/>
</svg>