<svg width="16" height="17" viewBox="0 0 16 17" fill="none" xmlns="http://www.w3.org/2000/svg">
    <path fill-rule="evenodd" clip-rule="evenodd" d="M2 3.72575C2 2.25299 3.19391 1.05908 4.66667 1.05908H10.2288C10.936 1.05908 11.6143 1.34003 12.1144 1.84013L13.219 2.9447C13.719 3.4448 14 4.12307 14 4.83032V13.0591C14 14.5318 12.8061 15.7257 11.3333 15.7257H4.66667C3.19391 15.7257 2 14.5318 2 13.0591V3.72575ZM12.6667 5.72575V13.0591C12.6667 13.7955 12.0697 14.3924 11.3333 14.3924H4.66667C3.93029 14.3924 3.33333 13.7955 3.33333 13.0591V3.72575C3.33333 2.98937 3.93029 2.39242 4.66667 2.39242H9.33333V3.72575C9.33333 4.83032 10.2288 5.72575 11.3333 5.72575H12.6667ZM12.5927 4.39242C12.5272 4.20415 12.4198 4.03113 12.2761 3.88751L11.1716 2.78294C11.028 2.63932 10.8549 2.53184 10.6667 2.46638V3.72575C10.6667 4.09394 10.9651 4.39242 11.3333 4.39242H12.5927Z" fill="#EB4F5A"/>
    <path d="M6.00004 8.39258C5.63185 8.39258 5.33337 8.69105 5.33337 9.05924C5.33337 9.42743 5.63185 9.72591 6.00004 9.72591H10C10.3682 9.72591 10.6667 9.42743 10.6667 9.05924C10.6667 8.69105 10.3682 8.39258 10 8.39258H6.00004Z" fill="#EB4F5A"/>
    <path d="M6.00004 11.0592C5.63185 11.0592 5.33337 11.3577 5.33337 11.7259C5.33337 12.0941 5.63185 12.3926 6.00004 12.3926H8.00004C8.36823 12.3926 8.66671 12.0941 8.66671 11.7259C8.66671 11.3577 8.36823 11.0592 8.00004 11.0592H6.00004Z" fill="#EB4F5A"/>
</svg>