<svg width="30" height="30" viewBox="0 0 30 30" fill="none" xmlns="http://www.w3.org/2000/svg">
<path d="M13.3401 20.3475H5.66113" stroke="currentColor" stroke-width="2" stroke-linecap="round" stroke-linejoin="round"/>
<path d="M16.7646 8.53503H24.4436" stroke="currentColor" stroke-width="2" stroke-linecap="round" stroke-linejoin="round"/>
<path fill-rule="evenodd" clip-rule="evenodd" d="M11.3852 8.46887C11.3852 6.88979 10.0955 5.60938 8.50508 5.60938C6.91463 5.60938 5.625 6.88979 5.625 8.46887C5.625 10.048 6.91463 11.3284 8.50508 11.3284C10.0955 11.3284 11.3852 10.048 11.3852 8.46887Z" stroke="currentColor" stroke-width="2" stroke-linecap="round" stroke-linejoin="round"/>
<path fill-rule="evenodd" clip-rule="evenodd" d="M25.1254 20.2999C25.1254 18.7208 23.8368 17.4404 22.2463 17.4404C20.6549 17.4404 19.3652 18.7208 19.3652 20.2999C19.3652 21.879 20.6549 23.1594 22.2463 23.1594C23.8368 23.1594 25.1254 21.879 25.1254 20.2999Z" stroke="currentColor" stroke-width="2" stroke-linecap="round" stroke-linejoin="round"/>
</svg>
