<svg width="21" height="21" viewBox="0 0 21 21" fill="none" xmlns="http://www.w3.org/2000/svg">
<path d="M14.25 8.33281L6.75 4.00781" stroke="#1A202C" stroke-width="1.6" stroke-linecap="round" stroke-linejoin="round"/>
<path d="M18 13.8329V7.16626C17.9997 6.87399 17.9225 6.58693 17.7763 6.33389C17.63 6.08086 17.4198 5.87073 17.1667 5.72459L11.3333 2.39126C11.08 2.24498 10.7926 2.16797 10.5 2.16797C10.2074 2.16797 9.92003 2.24498 9.66667 2.39126L3.83333 5.72459C3.58022 5.87073 3.36998 6.08086 3.22372 6.33389C3.07745 6.58693 3.0003 6.87399 3 7.16626V13.8329C3.0003 14.1252 3.07745 14.4122 3.22372 14.6653C3.36998 14.9183 3.58022 15.1285 3.83333 15.2746L9.66667 18.6079C9.92003 18.7542 10.2074 18.8312 10.5 18.8312C10.7926 18.8312 11.08 18.7542 11.3333 18.6079L17.1667 15.2746C17.4198 15.1285 17.63 14.9183 17.7763 14.6653C17.9225 14.4122 17.9997 14.1252 18 13.8329Z" stroke="#1A202C" stroke-width="1.6" stroke-linecap="round" stroke-linejoin="round"/>
<path d="M3.22461 6.30078L10.4996 10.5091L17.7746 6.30078" stroke="#1A202C" stroke-width="1.6" stroke-linecap="round" stroke-linejoin="round"/>
<path d="M10.5 18.9V10.5" stroke="#1A202C" stroke-width="1.6" stroke-linecap="round" stroke-linejoin="round"/>
</svg>
