<svg width="25" height="24" viewBox="0 0 25 24" fill="none" xmlns="http://www.w3.org/2000/svg">
    <path fill-rule="evenodd" clip-rule="evenodd" d="M8.68751 6.5C8.68751 4.60508 10.2996 3 12.375 3C14.4504 3 16.0625 4.60508 16.0625 6.5C16.0625 8.39492 14.4504 10 12.375 10C10.2996 10 8.68751 8.39492 8.68751 6.5ZM12.375 1C9.27275 1 6.68751 3.42435 6.68751 6.5C6.68751 9.57565 9.27275 12 12.375 12C15.4773 12 18.0625 9.57565 18.0625 6.5C18.0625 3.42435 15.4773 1 12.375 1ZM5.5612 18.285C7.13857 17.4996 9.68702 16.5 12.375 16.5C15.063 16.5 17.6114 17.4996 19.1888 18.285C19.8812 18.6297 20.3528 19.3475 20.4613 20.2254L20.6188 21.5H4.1312L4.28872 20.2254C4.39722 19.3475 4.8688 18.6297 5.5612 18.285ZM12.375 14.5C9.23831 14.5 6.36419 15.651 4.66982 16.4946C3.28075 17.1862 2.48052 18.5504 2.30382 19.9801L2.00756 22.3773C1.9724 22.6618 2.06097 22.9476 2.25079 23.1623C2.4406 23.377 2.71342 23.5 3.00001 23.5H21.75C22.0366 23.5 22.3094 23.377 22.4992 23.1623C22.689 22.9476 22.7776 22.6618 22.7425 22.3773L22.4462 19.9801C22.2695 18.5504 21.4693 17.1862 20.0802 16.4946C18.3858 15.651 15.5117 14.5 12.375 14.5Z" fill="currentColor"/>
</svg>