<svg width="22" height="20" viewBox="0 0 22 20" fill="none" xmlns="http://www.w3.org/2000/svg">
<path d="M3.85757 7.97865C4.28443 6.48999 5.17162 5.17469 6.39197 4.22124C7.61232 3.2678 9.10319 2.72517 10.6509 2.67112C12.1986 2.61708 13.7237 3.05439 15.0076 3.92038C16.2915 4.78638 17.2682 6.03659 17.7979 7.49184" stroke="currentColor" stroke-width="2" stroke-linecap="round" stroke-linejoin="round"/>
<path d="M17.6633 12.8508C17.1116 14.1583 16.1925 15.2776 15.0173 16.073C13.8422 16.8684 12.4615 17.3058 11.0427 17.3321C9.62384 17.3584 8.22788 16.9725 7.02405 16.2211C5.82022 15.4698 4.86024 14.3853 4.26052 13.0992" stroke="currentColor" stroke-width="2" stroke-linecap="round" stroke-linejoin="round"/>
<path d="M5.7616 12.4458L3.62247 12.763L2.59277 14.6646" stroke="currentColor" stroke-width="2" stroke-linecap="round" stroke-linejoin="round"/>
<path d="M16.1112 8.10822L18.2503 7.791L19.28 5.88938" stroke="currentColor" stroke-width="2" stroke-linecap="round" stroke-linejoin="round"/>
</svg>
