<svg width="24" height="24" viewBox="0 0 24 24" fill="none" xmlns="http://www.w3.org/2000/svg">
<g id="Icon/Volume Off">
<g id="Volume Off">
<path id="Stroke 1" fill-rule="evenodd" clip-rule="evenodd" d="M16.5331 10.4675L9.71375 17.2874C9.53651 17.1847 9.36859 17.1194 9.21933 17.1101C7.92263 17.0168 7.41888 17.1661 6.7099 16.5597C5.94494 15.9066 6.00091 14.162 6.00091 12.8839C6.00091 11.6057 5.94494 9.86112 6.7099 9.20806C7.41888 8.60164 7.92263 8.76024 9.21933 8.65762C10.516 8.55499 13.2587 4.59931 15.3763 5.84945C16.2345 6.54916 16.4678 7.85529 16.5331 10.4675Z" stroke="currentColor" stroke-width="2" stroke-linecap="round" stroke-linejoin="round"/>
<path id="Stroke 3" d="M16.5334 14.917C16.4961 17.7905 16.2722 19.1899 15.3766 19.9176C14.3971 20.496 13.287 19.9642 12.2422 19.2085" stroke="currentColor" stroke-width="2" stroke-linecap="round" stroke-linejoin="round"/>
<path id="Stroke 5" d="M6.00098 21L9.71382 17.2869L16.5331 10.4671L21.9998 5" stroke="currentColor" stroke-width="2" stroke-linecap="round" stroke-linejoin="round"/>
</g>
</g>
</svg>
