<svg width="22" height="21" viewBox="0 0 22 21" fill="none" xmlns="http://www.w3.org/2000/svg">
<path d="M10.9951 15.6776V13.1406" stroke="currentColor" stroke-width="2" stroke-linecap="round" stroke-linejoin="round"/>
<path fill-rule="evenodd" clip-rule="evenodd" d="M17.1899 4.33008C18.8799 4.33008 20.2399 5.70008 20.2399 7.39008V10.8301C17.7799 12.2701 14.5299 13.1401 10.9899 13.1401C7.44988 13.1401 4.20988 12.2701 1.74988 10.8301V7.38008C1.74988 5.69008 3.11988 4.33008 4.80988 4.33008H17.1899Z" stroke="currentColor" stroke-width="2" stroke-linecap="round" stroke-linejoin="round"/>
<path d="M14.4951 4.326V3.96C14.4951 2.74 13.5051 1.75 12.2851 1.75H9.70512C8.48512 1.75 7.49512 2.74 7.49512 3.96V4.326" stroke="currentColor" stroke-width="2" stroke-linecap="round" stroke-linejoin="round"/>
<path d="M1.77441 14.4824L1.96341 16.9914C2.09141 18.6824 3.50041 19.9894 5.19541 19.9894H16.7944C18.4894 19.9894 19.8984 18.6824 20.0264 16.9914L20.2154 14.4824" stroke="currentColor" stroke-width="2" stroke-linecap="round" stroke-linejoin="round"/>
</svg>
