<svg width="24" height="25" viewBox="0 0 24 25" fill="none" xmlns="http://www.w3.org/2000/svg">
<path d="M6 5.5C5.36348 5.5 4.75303 5.75286 4.30294 6.20294C3.85286 6.65303 3.6 7.26348 3.6 7.9V15.1H1.20711C0.761655 15.1 0.538571 15.6386 0.853553 15.9536L4.44645 19.5464C4.64171 19.7417 4.95829 19.7417 5.15355 19.5464L8.74645 15.9536C9.06143 15.6386 8.83835 15.1 8.39289 15.1H6V8.4C6 8.12386 6.22386 7.9 6.5 7.9H14.4L16.8 5.5H6ZM18 10.3H15.6071C15.1617 10.3 14.9386 9.76143 15.2536 9.44645L18.8464 5.85355C19.0417 5.65829 19.3583 5.65829 19.5536 5.85355L23.1464 9.44645C23.4614 9.76143 23.2383 10.3 22.7929 10.3H20.4V17.5C20.4 18.1365 20.1471 18.747 19.6971 19.1971C19.247 19.6471 18.6365 19.9 18 19.9H7.2L9.6 17.5H17.5C17.7761 17.5 18 17.2761 18 17V10.3Z" fill="#EB4F5A"/>
</svg>
