<svg width="17" height="17" viewBox="0 0 17 17" fill="none" xmlns="http://www.w3.org/2000/svg">
<path fill-rule="evenodd" clip-rule="evenodd" d="M9.23617 3.33793L10.4544 5.77177C10.5738 6.0107 10.8043 6.17638 11.0716 6.21472L13.7969 6.60701C14.4702 6.70422 14.7382 7.52029 14.2509 7.98789L12.2801 9.88156C12.0864 10.0678 11.9983 10.3355 12.0441 10.5984L12.5092 13.2718C12.6237 13.9332 11.9198 14.4377 11.318 14.1248L8.88214 12.8617C8.64335 12.7378 8.35735 12.7378 8.11786 12.8617L5.682 14.1248C5.08015 14.4377 4.37626 13.9332 4.4915 13.2718L4.9559 10.5984C5.00171 10.3355 4.91355 10.0678 4.71988 9.88156L2.74912 7.98789C2.26181 7.52029 2.52976 6.70422 3.20311 6.60701L5.92843 6.21472C6.19569 6.17638 6.42685 6.0107 6.54625 5.77177L7.76383 3.33793C8.0651 2.73615 8.9349 2.73615 9.23617 3.33793Z" fill="currentColor"/>
</svg>
